<svg data-v-0dd9719b="" version="1.0" xmlns="http://www.w3.org/2000/svg" xmlns:xlink="http://www.w3.org/1999/xlink" width="100%" height="100%" viewBox="0 0 340.000000 250.000000" preserveAspectRatio="xMidYMid meet" color-interpolation-filters="sRGB" style="margin: auto;"> <rect data-v-0dd9719b="" x="0" y="0" width="100%" height="100%" fill="none" fill-opacity="1" class="background"></rect> <!----> <g data-v-0dd9719b="" fill="#b722ff" class="iconlinesvg-g iconlinesvg" transform="translate(-198.501220703125,91.72455215460074)"><g class="tp-name" fill="url(#6e5070f8-615a-49ac-a54e-71e6f4d9c800)"><g transform="translate(0, 0)"><g mask="url(#7f1f3fea-67de-4e7e-b0bc-19398dfe5621)"><g class="imagesvg"><g><rect fill="url(#6e5070f8-615a-49ac-a54e-71e6f4d9c800)" fill-opacity="0" stroke-width="2" x="0" y="0" width="126.63770563604812" height="66.55089713750709" class="image-rect"></rect> <svg x="0" y="0" width="126.63770563604812" height="66.55089713750709" filtersec="colorsb4001011926" class="image-svg-svg primary" style="overflow: visible;"><svg data-name="0fb12958-8c27-4b95-a16f-2c2f08c8c6c1" xmlns="http://www.w3.org/2000/svg" viewBox="0.000171661376953125 0.0028352737426757812 493.6896667480469 259.4452819824219"><title>33</title><path d="M278.65 64.9c13.88 3.61 27.59 14.17 35.78 29.44a32.52 32.52 0 0 1 9.45-5.13c-10.26-22.2-30.94-37.82-45.88-38.7 2.81 3.02 2.87 9.08.65 14.39zM215 64.9c-13.88 3.61-27.59 14.17-35.78 29.44a32.58 32.58 0 0 0-9.43-5.13c10.26-22.2 30.94-37.82 45.83-38.7-2.74 3.02-2.81 9.08-.62 14.39zM346.59 115.2s-4.44-2.67 2.84-3.2 20-9 20-9c-7.46-6-8.7-16.49-8.7-16.49-2.15 5.5-16.27 17.57-15.9 11.5-1.38 1.68-1.59 3.78-1.33 6.75l-1.06-5.33c4.08-6.8-3.74-16.09-9.59-12 5 .27 5 4.35 5 4.35-6.66-4.18-8.53 3.37-8.53 3.37 3.32-1.08 5.46 1.32 7.11 3.29-6.15-2.86-8.48.53-8 2.84 2.28-1.17 4.27 1.75 5 4.18 1.15 3 7.55 8.79 7.55 8.79 1.3 1.38 3.29 1.57 5.61.95zM388.62 128.21s-12.76-.78-17.16.85c-9.86 3.64 3.68 31.72 3.68 31.72s-13.35.45-13.18.72-10.6-5.88-14-5.44-9.48 1.87-6.82 8.27c0 0-.8-4 3.38-1.16 0 0-4.8 2.49-2.31 6.22 0 0 2-3.82 5.6-1.51 0 0-5 1.51-2.22 4.53 0 0 3-3.55 5.33-1.07s2 2.94 5.33 2.58 2.75-.91 3.64-1.91c0 0 1.78 2 1.06 3.73 0 0 1.85.89 4.26-1.78 0 0 5.69-1.07 6.94.89s3 2.22 4.62 2.49a4.44 4.44 0 0 1-.58-2.52c.34-1.8 2.4 2.59 5.47.92s3.55-3.11 2.84-4.44 4.53 3.29 1.16 5.51c0 0 6.3-2.49 5.24-7.28a153.59 153.59 0 0 1-2.09-16.26c.09-.27-3.11-.8-3.47-4.09 0 0 5.77 5.6 11 4.35l-1.53-1.4s5.42 1.74 8.17-.13c0 0-2.53-11.21-8.13-17.78z" fill="url(#6e5070f8-615a-49ac-a54e-71e6f4d9c800)"></path><path d="M486.1 128.01c-6.11 19.21-34.79 25-43.48 7.7-16.81-33.47-32.73-24.27-27.88-60.45 2.73-1.84 7.15-7.54 8.72-11.27 0 0 2.37 3.41 2.28 6 0 .53 12.17-28.8-4.38-44.07a33.52 33.52 0 0 1 6.24 2.5c-2.27-3.75-8.2-12.85-18.4-16.94a17.63 17.63 0 0 1 7.4 1s-12.46-17.76-35.27-10.9c0 0-8.06 2.61-8.88 5.51 0 0-.61-1.34 1.65-4.58 0 0-6.86 4.58-5.64 9.58-7.45 5-12.14 7.83-19.53 10.53-.85 1.54-.11 2.88 2.35 9.19l2.46 1.82s-.62-2.25 1.32-2.57 12.43 1.62 7.43 6.26c-3 2.77-8.45-1-8.3-2.15a14.84 14.84 0 0 0 0 7.18c.94 4.18 6.81 4.66 6.81 4.66a32 32 0 0 0 8.51-1.51c.77.68 1.27 1.27 1.82 4.31a2.51 2.51 0 0 1-1.82 2.43c-5 .85-5.71 2.67-5.43 4.88a6.16 6.16 0 0 1 3.7-1.11c2.85.37 1.09 4.06-1.79 4.63-2.61.5-6.13.27-9.68-3.46 0 0 1 5.16 5.87 6.26-7.59-.77-15.81-5.86-30.91-15.86 0 0-5.42-9.15-7.11-8.71a21.19 21.19 0 0 1-4.62.36c-5-3.29-9.15-1-9.15-1l1.78 1c-7.82-1.51-6 5.21-6 5.21 4.66-3.06 7.29.11 7.29.11-11.1-2.21-8.71 7.29-8.71 7.29.4-3.65 5.64-1.84 7.73-.53-8.26-2.58-6.93 6-6.93 6 .72-3.22 4-1.42 8.88 1.06 6.4 3.1 9.15 1.16 9.15 1.16S335.81 68.9 341 74.07c7.65 7.7 21.68 4.44 21.68 4.44.44 4.13 3 5.38 5.42 6.4 0 0-1.2-2.49-.93-2.49.88.81 2.13.25 10 .08 8.18 1.79 17.14 2.15 21.54-.7 0 0-2.71 3.24-9.37 3.33-9 .12-10.62-2.18-15-1.11s-5.47-.05-5.47-.05a6.31 6.31 0 0 0 2.4 2.58c-6.48.18-9-3.68-9-3.68s2 12.57 7.17 18.25S371 114.01 382 121.01s18.83 14.57 22.39 28.87 11.82 27.27 16.61 30.2c3.88 2.37 10.14 9.1 12.4 11.61l.35-3.44.51 4.39s-.47 15.15-.11 17.55-.62 2.4-.62 2.4c-2.4-1.25-3.11-.53-3.11-.53l-3.2 1.87c-9.68.18-6.13 7.46-6.13 7.46a3.71 3.71 0 0 1 2.25-4.74h.14c-2.61 1.39-1.23 5.33-1.23 5.33.27-3.29 2.4-.09 5.59 0s2-5.24 2-5.24c3.82 2-.62 5 .18 4.89s9.77-.62 13.68-2.31.62-6.31.62-6.31a2.69 2.69 0 0 1 2.49 1.6c.53-2.49-2.67-6.66-2.67-6.66l3.46 2.13-1.6-3.55c-4.26-8.44 6.84-15.9-1.06-21.32s-7-18.74-7-18.74c-1.69 4.71-1.33 10.84-1.33 10.84-1.69-3.73-2.93-3.2.53-15.55 2.62-9.34-2.48-22.48-5.12-28.33a44.15 44.15 0 0 0 12.32 14.47l-4.27-1.6c14.86 10.5 34.58 5.84 42.73-1.77 18-16 12.14-43.39-6.29-55.54 0 0-16.38-9-8.87-13.76s15-4.1 17.06-10.92a15.14 15.14 0 0 1-6.48 2s7.51-2.73 5.12-10.92-5.8-6.48-6.82-11.26c0 0-6.14 4.78-3.41 11.26 0 0 .68 5.46-2 6.14 0 0 1-3.07-2-6.14 0 0 1.36 5.46-2.39 7.51s-11.6 16-1 23.7 27.28 19.58 20.38 41.41zm-110.78-111c-1.63.79-5.24 3.18-9.36 1.85a5.57 5.57 0 0 1 5.3-2.21c1.74.29 2.27.53 3.53.29a5.54 5.54 0 0 0 1.7-.58 9.3 9.3 0 0 1-1.17.65zm18.49 4.23l1.19-4.72s-.5-4.49-2.67-5.69-6.3-.25-6.3-.25c3.68-3.93 16.97.62 7.78 10.62zM147.08 115.2s4.44-2.67-2.84-3.2-20-9-20-9c7.46-6 8.7-16.49 8.7-16.49 1.87 4.8 9.51 10.9 12.79 12.67s3.11-1.17 3.11-1.17c1.38 1.68 1.59 3.78 1.33 6.75l1.06-5.33a9 9 0 0 1 1.45-10.42c4-4.44 8.17-1.51 8.17-1.51-5 .27-5 4.35-5 4.35 6.66-4.18 8.53 3.37 8.53 3.37-3.33-1.08-5.46 1.32-7.11 3.29 6.15-2.86 8.48.53 8 2.84-2.28-1.17-4.28 1.75-5 4.18-1.15 3-7.55 8.79-7.55 8.79-1.33 1.31-3.31 1.5-5.64.88zM105 128.21s12.75-.78 17.15.85c9.86 3.64-3.68 31.72-3.68 31.72s13.35.45 13.17.72 10.61-5.88 14-5.44 9.48 1.87 6.82 8.27c0 0 .8-4-3.38-1.16 0 0 4.8 2.49 2.31 6.22 0 0-2-3.82-5.6-1.51 0 0 5 1.51 2.22 4.53 0 0-3-3.55-5.33-1.07s-2 2.94-5.33 2.58-2.75-.89-3.64-1.87c0 0-1.77 2-1.06 3.73 0 0-1.85.89-4.26-1.78 0 0-5.7-1.07-6.94.89s-3 2.22-4.62 2.49a3.93 3.93 0 0 0 .53-2.75c-.35-1.24-2.49 2.75-5.42 1.15s-3.55-3.11-2.84-4.44-4.53 3.29-1.16 5.51c0 0-6.31-2.49-5.24-7.28a154.34 154.34 0 0 0 2.13-16.26c-.09-.27 3.11-.8 3.47-4.09 0 0-5.77 5.6-11 4.35l1.46-1.4s-5.42 1.74-8.17-.13c0 0 2.53-11.21 8.13-17.78z" fill="url(#6e5070f8-615a-49ac-a54e-71e6f4d9c800)"></path><path d="M7.57 128.01c6.12 19.21 34.79 25 43.48 7.7 16.89-33.7 32.76-24.1 27.88-60.44-2.73-1.84-7.12-7.54-8.72-11.3 0 0-2.37 3.41-2.28 6 0 .53-12.17-28.8 4.38-44.07a33.52 33.52 0 0 0-6.24 2.5c2.27-3.75 8.2-12.85 18.4-16.94a17.62 17.62 0 0 0-7.4 1S89.53-5.28 112.35 1.58c0 0 8.06 2.61 8.88 5.51 0 0 .61-1.34-1.65-4.58 0 0 6.86 4.58 5.65 9.58 7.45 5 12.14 7.83 19.53 10.53.85 1.54.11 2.88-2.36 9.19l-2.46 1.82s.62-2.25-1.31-2.57-12.44 1.62-7.43 6.26c3 2.77 8.45-1 8.3-2.15a14.84 14.84 0 0 1 0 7.18c-.94 4.18-6.86 4.66-6.86 4.66a32 32 0 0 1-8.51-1.51c-.77.68-1.27 1.27-1.82 4.31a2.51 2.51 0 0 0 1.82 2.43c5 .85 5.71 2.67 5.43 4.88a5.41 5.41 0 0 0-4.35-.89c-1.77.8-.18 3.91 2.49 4.44s6.13.27 9.68-3.46c0 0-1 5.16-5.86 6.26 8.1-.82 17.27-6.83 30.91-15.86 0 0 5.42-9.15 7.11-8.71a21.17 21.17 0 0 0 4.62.36c5-3.29 9.15-1 9.15-1l-1.77 1c7.82-1.51 6 5.21 6 5.21-4.66-3.06-7.29.11-7.29.11 11.1-2.21 8.71 7.29 8.71 7.29-.4-3.65-5.64-1.84-7.73-.53 8.26-2.58 6.93 6 6.93 6-.72-3.22-4-1.42-8.88 1.06-6.4 3.1-9.15 1.16-9.15 1.16s-12.32 9.34-17.45 14.51C145 81.77 131 78.51 131 78.51c-.44 4.13-3 5.38-5.42 6.4 0 0 1.2-2.49.93-2.49-.88.81-2.13.25-10 .08-8.17 1.79-17.14 2.15-21.54-.7 0 0 2.71 3.24 9.37 3.33 9.05.12 10.62-2.18 15-1.11s5.51-.09 5.51-.09a6.3 6.3 0 0 1-2.4 2.58c6.49.18 9-3.68 9-3.68s-2 12.57-7.17 18.25-1.63 12.93-12.64 19.93-18.83 14.57-22.39 28.87-11.81 27.23-16.61 30.13c-3.88 2.37-10.14 9.1-12.4 11.61l-.35-3.44-.51 4.39s.47 15.15.11 17.55.62 2.4.62 2.4c2.4-1.25 3.11-.53 3.11-.53l3.2 1.87c9.68.18 6.13 7.46 6.13 7.46a3.72 3.72 0 0 0-2.27-4.75h-.12c2.61 1.39 1.23 5.33 1.23 5.33-.27-3.29-2.4-.09-5.6 0s-2-5.24-2-5.24c-3.82 2 .62 5-.18 4.89s-9.77-.62-13.68-2.31-.62-6.31-.62-6.31a2.69 2.69 0 0 0-2.49 1.6c-.53-2.49 2.67-6.66 2.67-6.66l-3.41 2.14 1.6-3.55c4.26-8.44-6.84-15.9 1.07-21.32s7-18.74 7-18.74c1.69 4.71 1.33 10.84 1.33 10.84 1.69-3.73 2.93-3.2-.53-15.55-2.62-9.34 2.48-22.48 5.12-28.33a44.15 44.15 0 0 1-12.32 14.47l4.27-1.6c-14.86 10.46-34.62 5.78-42.73-1.81-18-16-12.14-43.39 6.29-55.54 0 0 16.38-9 8.87-13.76S11.05 71.01 9 64.2a15.14 15.14 0 0 0 6.48 2S8 63.47 10.35 55.28s5.8-6.48 6.83-11.26c0 0 6.14 4.78 3.41 11.26 0 0-.68 5.46 2 6.14 0 0-1-3.07 2-6.14 0 0-1.36 5.46 2.39 7.51s11.6 16 1 23.7S.62 106.18 7.57 128.01zm110.78-111c1.63.79 5.24 3.18 9.36 1.85a5.57 5.57 0 0 0-5.3-2.21c-1.74.29-2.27.53-3.52.29a5.5 5.5 0 0 1-1.7-.58 9.18 9.18 0 0 0 1.16.65zM99.81 21.2l-1.17-4.68s.49-4.49 2.67-5.69 6.3-.25 6.3-.25c-3.61-3.92-16.96.61-7.8 10.62zM246.81 35.14a10 10 0 0 1 4.53-4.13l-4.53-5.57-4.48 5.57a9.94 9.94 0 0 1 4.48 4.13z" fill="url(#6e5070f8-615a-49ac-a54e-71e6f4d9c800)"></path><path d="M246.81 64.42c6.1 1.14 12.39 1.3 18 3.35 0 0 14.24-35.36 29.43-47l-15 .81a7.71 7.71 0 1 1-14 4.41v-.78L257 28.1a10.85 10.85 0 1 1-10.08 14 10.85 10.85 0 1 1-10.08-14l-8.28-2.89a7.71 7.71 0 1 1-14-3.63l-15-.81c15.19 11.63 29.43 47 29.43 47 5.46-2.05 11.74-2.21 17.82-3.35z" fill="url(#6e5070f8-615a-49ac-a54e-71e6f4d9c800)"></path><path d="M377.3 186.43l-.07.22.06-.22a73.11 73.11 0 0 0-23-2.52c-2.57-6.25-9.58-11.27-19.89-14.21l-.2.68.18-.68a54.74 54.74 0 0 0-7.56-1.35 61.38 61.38 0 0 0 1.76-25.56C306 138.91 296.66 111.7 312 96.43c-8.19-15.3-22.58-26.15-34.88-28.72-6.44 10.36-20 9.49-30.35 1.26-10.67 8.54-24.09 8.78-30.36-1.24-12.3 2.57-26.69 13.41-34.88 28.72a25.1 25.1 0 0 1 7.55 18.21A28.75 28.75 0 0 1 165 142.81a61.45 61.45 0 0 0 1.78 25.54 54.67 54.67 0 0 0-7.56 1.35l.18.68-.2-.68c-10.31 2.94-17.31 8-19.89 14.21a73.12 73.12 0 0 0-23 2.52l.06.22-.07-.22c-23 6.91-40.81 28.61-17.22 49.84 8.22 7.4 19.85 10 32.08 10.07 1.83 5.06 7 9.19 14.91 11.55 15.53 4.65 41.8-1.12 78.25-17.15 8.75 4.49 16.62 9.63 22.42 15.22 5.81-5.58 13.68-10.72 22.43-15.22 36.45 16 62.72 21.8 78.25 17.15 7.87-2.36 13.08-6.49 14.91-11.55 12.23-.09 23.86-2.67 32.08-10.07 23.7-21.26 5.85-42.93-17.11-49.84zm-28 14.78c-1.72 2.24-7.21 7.54-21.13 8.17a86.55 86.55 0 0 1-23.33-2.6q2.46-2.78 4.62-5.5c16.44-6.09 31.6-10.94 44.4-13.15.36 4.12-1.15 8.58-4.59 13.08zm-15.38-30.12h.08c9.57 2.72 16.13 7.25 18.7 12.84-11 .5-22.84 2.73-35.52 6.26a86 86 0 0 0 9.09-19.89 28.88 28.88 0 0 1 7.57.79zm-118.5-75.51q4.78.42 9 .73t6.3.31q1.66 0 4.58-.1t7.18-.31l2.91-.21q7.59-.52 11-.52a52.94 52.94 0 0 1 7.34.42q2.86.42 2.86 1.77a37.24 37.24 0 0 0 .52 5.62 36.14 36.14 0 0 1 .31 4.06q0 .94-.62.94c-.42 0-.87-.48-1.35-1.46a14.33 14.33 0 0 0-.73-1.46q-1.56-2.29-5.72-3.85t-12-1.51q-2.08 0-6.66.42-4.06.31-6.14.42a25 25 0 0 0-.73 5.52l-.1 1.87q-.21 4.27-.31 9.37t-.1 17.28q2.7 0 7.18.1 4.89.21 6.76.21a15.42 15.42 0 0 0 2.08-.1h2a19.9 19.9 0 0 0 6.61-1.4 11.91 11.91 0 0 0 5.11-4.69h.73q-.11 1.46-.31 2.91-.21 1.67-.31 3t-.1 3v3.85q0 1 .21 4.06h-.73a8.41 8.41 0 0 0-4.73-4.16 26.44 26.44 0 0 0-7.44-1.56q-5.31-.41-17.07-.42v.32q0 7.39.21 13.37t.62 14.83a6.63 6.63 0 0 0 1.93 4.63 12.19 12.19 0 0 0 4.53 2.81 25.46 25.46 0 0 0 5.76 1.36 51 51 0 0 0 6.14.36 43.1 43.1 0 0 0 8.22-.68 14.79 14.79 0 0 0 6.35-3 49.18 49.18 0 0 0 6.14-6.56q2.29-2.7 2.81-2.71a.83.83 0 0 1 .94.94 5.07 5.07 0 0 1-.57 2.13q-.57 1.2-1.82 3.38a29.77 29.77 0 0 0-3 6.45v.21a6 6 0 0 1-1.66 2.91q-1.15 1-4.58 1h-15.83q-6.56 0-11.55-.1h-9.37q-2.08 0-4.84.21l-6.61.52-.94.1v-1.67a10.33 10.33 0 0 0 2.6-2 18.1 18.1 0 0 0 2.5-3.17 21.8 21.8 0 0 0 1.87-3.7 9.57 9.57 0 0 0 .73-3.43q.21-8 .21-13.22v-14.75q0-8-.21-16.34t-.62-16.13a12.76 12.76 0 0 0-2.08-6.14 14.9 14.9 0 0 0-5.93-5l-.21-1.14zm-48 74.74a86 86 0 0 0 9.1 19.89c-12.68-3.52-24.49-5.76-35.52-6.26 3.75-8.26 16.61-13.8 26.38-13.63zm-27.61 17.81c12.79 2.21 28 7.06 44.4 13.15q2.16 2.72 4.62 5.5a86.55 86.55 0 0 1-23.33 2.6c-13.92-.64-19.41-5.93-21.13-8.17-3.37-4.5-4.92-8.96-4.56-13.08zm-9 56.73c-11.73-.15-22.82-2.65-30.63-9.68-22.75-20.48-5.11-40.79 16.63-47.34 6.79-1.64 14.69-1.05 21.56 0-.48 4.52 1.14 9.36 4.84 14.21 2.23 2.92 13.26 14 46.78 6a171.78 171.78 0 0 0 19.82 18.47l-3.48 1.37c-16.35-4.7-34.11-7-46-7-20.33.77-31.82 13.74-29.52 23.97zm80.31-17.31q2 1.59 4.14 3.19c-2.2-.78-4.43-1.51-6.67-2.19zm-50.47-5.18c9.43 0 24 3 39 8-28.52 10.26-53.3 14.42-67.3 14.49-2.84-11.32 12.36-22.44 28.3-22.49zm-14.05 34.11c-7.24-2.17-12-5.73-13.77-10.15 14.8-.14 40.34-4.75 69-15.21a183.14 183.14 0 0 1 20.86 8.73c-25.4 11-57.62 22.17-76.1 16.63zm100.21-18.33c-31.28-17.83-52.61-37.41-63.43-58.22-8.85-17-9.25-28.54-7.84-36.34l3.79-2.34c-1.41 7.24-2 20.63 6.68 37.27 10.38 20 30.82 38.84 60.81 56.16 30-17.32 50.42-36.2 60.8-56.16 8.66-16.65 8.1-30 6.69-37.27l3.79 2.34c1.41 7.8 1 19.33-7.84 36.34-10.81 20.81-32.15 40.39-63.45 58.22zm35.72-10.6l2.53 1c-2.24.68-4.47 1.4-6.67 2.19q2.15-1.59 4.16-3.18zm64.53 28.92c-18.48 5.54-50.7-5.59-76.06-16.62a183 183 0 0 1 20.85-8.73c28.64 10.46 54.18 15.07 69 15.21-1.79 4.42-6.53 8-13.77 10.15zm14.25-11.61c-14-.06-38.78-4.23-67.3-14.49 11.29-3.81 27.44-8 39.31-8 18.55.7 30.49 12.6 28 22.5zm32.16-9.68c-7.81 7-18.89 9.53-30.63 9.68 2.3-10.23-9.21-23.2-29.46-24-11.93 0-29.69 2.29-46 7l-3.57-1.34a171.77 171.77 0 0 0 19.84-18.51c33.52 8 44.54-3 46.78-6 3.7-4.84 5.31-9.69 4.84-14.21 6.87-1.09 14.77-1.68 21.56 0 21.77 6.55 39.42 26.87 16.66 47.35z" fill="url(#6e5070f8-615a-49ac-a54e-71e6f4d9c800)"></path></svg></svg> <!----></g></g><rect v-gra="id" width="138.63770294189453" height="78.55089569091797" transform="translate(-6, -6)" style="pointer-events:none;" fill="url(#W0QOtPm15BkXy4NNLLrPW)"></rect></g></g><g transform="translate(129, 0.24514553845052234)"><g data-gra="path-name" fill="url(#6e5070f8-615a-49ac-a54e-71e6f4d9c800)" transform="scale(1)"><path d="M5.15-55.45L12.12-55.45L12.12 0L5.15 0L5.15-55.45Z" transform="translate(-5.1515151515151505, 56.96969696969696)"></path></g></g><g transform="translate(139, 0.24514553845052234)"><g data-gra="path-name" fill="url(#6e5070f8-615a-49ac-a54e-71e6f4d9c800)" transform="scale(1)"><path d="M2.73-20.30L2.73-20.30Q3.94-40.91 21.52-41.82L21.52-41.82Q39.09-40.91 40.30-20.30L40.30-20.30Q39.09 0 21.52 0.61L21.52 0.61Q3.94 0 2.73-20.30ZM9.70-20.30L9.70-20.30Q10.61-5.15 21.52-4.85L21.52-4.85Q32.42-5.15 33.33-20.30L33.33-20.30Q32.42-35.45 21.52-35.76L21.52-35.76Q10.61-35.45 9.70-20.30Z" transform="translate(-2.7272727272727266, 56.96969696969696)"></path></g></g><g transform="translate(180, 0.24514553845052234)"><g data-gra="path-name" fill="url(#6e5070f8-615a-49ac-a54e-71e6f4d9c800)" transform="scale(1)"><path d="M12.73-23.64L12.73-23.64L12.73 0L5.76 0L5.76-40.61L12.42-40.61L12.42-33.64Q16.97-41.82 23.94-41.82L23.94-41.82Q24.55-41.82 25.15-41.52L25.15-41.52Q25.45-41.52 25.76-41.52L25.76-41.52L25.76-34.24L23.03-34.24Q13.33-33.64 12.73-23.64Z" transform="translate(-5.757575757575757, 56.96969696969696)"></path></g></g><g transform="translate(204, 0.24514553845052234)"><g data-gra="path-name" fill="url(#6e5070f8-615a-49ac-a54e-71e6f4d9c800)" transform="scale(1)"><path d="M11.21-28.18L11.21-28.18L4.85-28.18Q5.15-41.82 21.52-41.82L21.52-41.82Q36.06-41.21 36.36-30.30L36.36-30.30L36.36-6.97Q36.36-4.55 38.79-4.55L38.79-4.55Q39.09-4.55 39.70-4.55L39.70-4.55Q40.61-4.85 41.21-4.85L41.21-4.85L41.21 0Q40.61 0 39.70 0L39.70 0Q38.18 0.30 37.27 0.30L37.27 0.30Q30.00 0.30 30.30-5.45L30.30-5.45Q24.24 0.61 15.45 0.61L15.45 0.61Q3.33 0 2.73-10.61L2.73-10.61Q3.03-21.52 15.15-23.33L15.15-23.33L26.36-24.55Q30.00-25.15 30.00-29.39L30.00-29.39Q30.00-36.06 20.30-36.06L20.30-36.06Q11.82-36.06 11.21-28.18ZM29.70-13.94L29.70-13.94L29.70-20.61Q27.27-19.09 18.48-17.88L18.48-17.88Q10.00-17.27 10.00-11.52L10.00-11.52Q10.00-4.55 16.97-4.55L16.97-4.55Q28.79-5.45 29.70-13.94Z" transform="translate(-2.7272727272727266, 56.96969696969696)"></path></g></g><g transform="translate(246, 0.24514553845052234)"><g data-gra="path-name" fill="url(#6e5070f8-615a-49ac-a54e-71e6f4d9c800)" transform="scale(1)"><path d="M43.03 5.15L43.03 9.09L0 9.09L0 5.15L43.03 5.15Z" transform="translate(0, 56.96969696969696)"></path></g></g><g transform="translate(293, 0.24514553845052234)"><g data-gra="path-name" fill="url(#6e5070f8-615a-49ac-a54e-71e6f4d9c800)" transform="scale(1)"><path d="M52.12-39.09L52.12-39.09L44.85-39.09Q42.12-50.30 29.39-50.61L29.39-50.61Q11.82-49.70 11.21-28.18L11.21-28.18Q11.21-5.15 29.70-5.15L29.70-5.15Q42.42-5.45 45.45-20.61L45.45-20.61L52.73-20.61Q49.39 0.30 28.18 0.91L28.18 0.91Q3.94 0 3.33-27.88L3.33-27.88Q4.55-55.76 29.39-56.97L29.39-56.97Q49.09-56.36 52.12-39.09Z" transform="translate(-3.333333333333333, 56.96969696969696)"></path></g></g><g transform="translate(346, 0.24514553845052234)"><g data-gra="path-name" fill="url(#6e5070f8-615a-49ac-a54e-71e6f4d9c800)" transform="scale(1)"><path d="M5.15-55.45L12.12-55.45L12.12 0L5.15 0L5.15-55.45Z" transform="translate(-5.1515151515151505, 56.96969696969696)"></path></g></g><g transform="translate(356, 0.24514553845052234)"><g data-gra="path-name" fill="url(#6e5070f8-615a-49ac-a54e-71e6f4d9c800)" transform="scale(1)"><path d="M2.73-20.30L2.73-20.30Q3.94-40.91 21.52-41.82L21.52-41.82Q39.09-40.91 40.30-20.30L40.30-20.30Q39.09 0 21.52 0.61L21.52 0.61Q3.94 0 2.73-20.30ZM9.70-20.30L9.70-20.30Q10.61-5.15 21.52-4.85L21.52-4.85Q32.42-5.15 33.33-20.30L33.33-20.30Q32.42-35.45 21.52-35.76L21.52-35.76Q10.61-35.45 9.70-20.30Z" transform="translate(-2.7272727272727266, 56.96969696969696)"></path></g></g><g transform="translate(397, 0.24514553845052234)"><g data-gra="path-name" fill="url(#6e5070f8-615a-49ac-a54e-71e6f4d9c800)" transform="scale(1)"><path d="M37.88-40.61L37.88 0L31.52 0L31.52-5.76L31.21-6.06Q26.97 0.91 18.18 0.61L18.18 0.61Q5.45 0 5.15-11.52L5.15-11.52L5.15-40.61L12.12-40.61L12.12-13.64Q12.12-4.55 20.00-4.55L20.00-4.55Q30.30-4.85 31.21-18.18L31.21-18.18L31.21-40.61L37.88-40.61Z" transform="translate(-5.1515151515151505, 56.96969696969696)"></path></g></g><g transform="translate(433, 0.24514553845052234)"><g data-gra="path-name" fill="url(#6e5070f8-615a-49ac-a54e-71e6f4d9c800)" transform="scale(1)"><path d="M31.82-55.45L38.48-55.45L38.48 0L32.12 0L32.12-5.45Q28.48 0.61 20.61 0.61L20.61 0.61Q3.64 0 2.73-21.52L2.73-21.52Q3.64-40.91 19.70-41.82L19.70-41.82Q26.06-41.82 31.21-35.76L31.21-35.76Q31.52-35.15 31.82-34.85L31.82-34.85L31.82-35.15L31.82-55.45ZM9.70-20.30L9.70-20.30Q10.30-5.15 20.61-4.55L20.61-4.55Q31.52-5.76 31.82-18.18L31.82-18.18Q31.82-35.45 20.91-35.45L20.91-35.45Q9.39-35.45 9.70-20.30Z" transform="translate(-2.7272727272727266, 56.96969696969696)"></path></g></g><g transform="translate(472, 0.24514553845052234)"><g data-gra="path-name" fill="url(#6e5070f8-615a-49ac-a54e-71e6f4d9c800)" transform="scale(1)"><path d="M43.03 5.15L43.03 9.09L0 9.09L0 5.15L43.03 5.15Z" transform="translate(0, 56.96969696969696)"></path></g></g><g transform="translate(519, 0.24514553845052234)"><g data-gra="path-name" fill="url(#6e5070f8-615a-49ac-a54e-71e6f4d9c800)" transform="scale(1)"><path d="M46.36-39.39L46.36-39.39L39.39-39.39Q38.79-50.00 25.45-50.61L25.45-50.61Q13.03-50.30 13.03-40.91L13.03-40.91Q13.03-34.85 19.70-33.94L19.70-33.94L35.45-30.30Q47.88-27.27 47.88-15.15L47.88-15.15Q47.58 0.30 26.06 0.91L26.06 0.91Q14.24 0.91 9.39-3.94L9.39-3.94Q3.33-8.48 3.64-17.88L3.64-17.88L10.91-17.88Q11.21-5.15 26.06-4.85L26.06-4.85Q40.61-5.15 40.91-14.24L40.91-14.24Q42.12-21.82 28.79-24.24L28.79-24.24L17.27-26.67Q5.45-30.00 5.45-40.00L5.45-40.00Q6.36-56.36 24.85-56.97L24.85-56.97Q45.76-56.97 46.36-39.39Z" transform="translate(-3.636363636363636, 56.96969696969696)"></path></g></g><g transform="translate(567, 0.24514553845052234)"><g data-gra="path-name" fill="url(#6e5070f8-615a-49ac-a54e-71e6f4d9c800)" transform="scale(1)"><path d="M20.00-40.61L20.00-34.85L13.33-34.85L13.33-8.48Q13.33-5.15 17.27-5.15L17.27-5.15L20.00-5.15L20.00 0Q18.18 0 15.76 0L15.76 0Q15.15 0 14.85 0L14.85 0Q6.06 0 6.36-7.88L6.36-7.88L6.36-34.85L1.21-34.85L1.21-40.61L6.36-40.61L6.36-51.82L13.33-51.82L13.33-40.61L20.00-40.61Z" transform="translate(-1.212121212121212, 56.96969696969696)"></path></g></g><g transform="translate(589, 0.24514553845052234)"><g data-gra="path-name" fill="url(#6e5070f8-615a-49ac-a54e-71e6f4d9c800)" transform="scale(1)"><path d="M11.21-28.18L11.21-28.18L4.85-28.18Q5.15-41.82 21.52-41.82L21.52-41.82Q36.06-41.21 36.36-30.30L36.36-30.30L36.36-6.97Q36.36-4.55 38.79-4.55L38.79-4.55Q39.09-4.55 39.70-4.55L39.70-4.55Q40.61-4.85 41.21-4.85L41.21-4.85L41.21 0Q40.61 0 39.70 0L39.70 0Q38.18 0.30 37.27 0.30L37.27 0.30Q30.00 0.30 30.30-5.45L30.30-5.45Q24.24 0.61 15.45 0.61L15.45 0.61Q3.33 0 2.73-10.61L2.73-10.61Q3.03-21.52 15.15-23.33L15.15-23.33L26.36-24.55Q30.00-25.15 30.00-29.39L30.00-29.39Q30.00-36.06 20.30-36.06L20.30-36.06Q11.82-36.06 11.21-28.18ZM29.70-13.94L29.70-13.94L29.70-20.61Q27.27-19.09 18.48-17.88L18.48-17.88Q10.00-17.27 10.00-11.52L10.00-11.52Q10.00-4.55 16.97-4.55L16.97-4.55Q28.79-5.45 29.70-13.94Z" transform="translate(-2.7272727272727266, 56.96969696969696)"></path></g></g><g transform="translate(631, 0.24514553845052234)"><g data-gra="path-name" fill="url(#6e5070f8-615a-49ac-a54e-71e6f4d9c800)" transform="scale(1)"><path d="M12.73-23.64L12.73-23.64L12.73 0L5.76 0L5.76-40.61L12.42-40.61L12.42-33.64Q16.97-41.82 23.94-41.82L23.94-41.82Q24.55-41.82 25.15-41.52L25.15-41.52Q25.45-41.52 25.76-41.52L25.76-41.52L25.76-34.24L23.03-34.24Q13.33-33.64 12.73-23.64Z" transform="translate(-5.757575757575757, 56.96969696969696)"></path></g></g><g transform="translate(655, 0.24514553845052234)"><g data-gra="path-name" fill="url(#6e5070f8-615a-49ac-a54e-71e6f4d9c800)" transform="scale(1)"><path d="M20.00-40.61L20.00-34.85L13.33-34.85L13.33-8.48Q13.33-5.15 17.27-5.15L17.27-5.15L20.00-5.15L20.00 0Q18.18 0 15.76 0L15.76 0Q15.15 0 14.85 0L14.85 0Q6.06 0 6.36-7.88L6.36-7.88L6.36-34.85L1.21-34.85L1.21-40.61L6.36-40.61L6.36-51.82L13.33-51.82L13.33-40.61L20.00-40.61Z" transform="translate(-1.212121212121212, 56.96969696969696)"></path></g></g><g transform="translate(677, 0.24514553845052234)"><g data-gra="path-name" fill="url(#6e5070f8-615a-49ac-a54e-71e6f4d9c800)" transform="scale(1)"><path d="M32.73-12.73L32.73-12.73L39.39-12.73Q38.18-5.76 32.12-1.52L32.12-1.52Q28.79 0.61 21.21 0.61L21.21 0.61Q3.94 0 3.03-19.09L3.03-19.09Q3.64-41.21 22.42-41.82L22.42-41.82Q39.70-41.52 40.00-17.88L40.00-17.88L10.30-17.88Q10.30-4.55 22.12-4.55L22.12-4.55Q30.61-5.15 32.73-12.73ZM10.30-23.33L10.30-23.33L33.03-23.33Q32.12-35.45 21.52-35.45L21.52-35.45Q11.52-34.55 10.30-23.33Z" transform="translate(-3.03030303030303, 56.96969696969696)"></path></g></g><g transform="translate(717, 0.24514553845052234)"><g data-gra="path-name" fill="url(#6e5070f8-615a-49ac-a54e-71e6f4d9c800)" transform="scale(1)"><path d="M12.73-23.64L12.73-23.64L12.73 0L5.76 0L5.76-40.61L12.42-40.61L12.42-33.64Q16.97-41.82 23.94-41.82L23.94-41.82Q24.55-41.82 25.15-41.52L25.15-41.52Q25.45-41.52 25.76-41.52L25.76-41.52L25.76-34.24L23.03-34.24Q13.33-33.64 12.73-23.64Z" transform="translate(-5.757575757575757, 56.96969696969696)"></path></g></g></g> <!----></g><defs v-gra="od"><linearGradient x1="0" y1="1" x2="0" y2="0" id="6e5070f8-615a-49ac-a54e-71e6f4d9c800"><stop offset="0%" stop-color="#b722ff"></stop><stop offset="100%" stop-color="#22d4fe"></stop></linearGradient><filter id="42443b3f1de60f6b6fd3b6a9844b4764" filterUnits="objectBoundingBox"><feColorMatrix type="matrix" values="0 0 0 0 0.99609375  0 0 0 0 0.99609375  0 0 0 0 0.99609375  0 0 0 1 0"></feColorMatrix></filter></defs><defs v-gra="id"><filter id="b65143b9-fee7-4fd4-9b8a-8a8f4c9e47ec" filterUnits="userSpaceOnUse"><feColorMatrix type="matrix" values="0 0 0 0 0.99609375  0 0 0 0 0.99609375  0 0 0 0 0.99609375  0 0 0 1 0"></feColorMatrix></filter><linearGradient x1="0" y1="1" x2="0" y2="0" id="W0QOtPm15BkXy4NNLLrPW"><stop offset="0%" stop-color="#b722ff"></stop><stop offset="100%" stop-color="#22d4fe"></stop></linearGradient><filter id="42443b3f1de60f6b6fd3b6a9844b4764" filterUnits="objectBoundingBox"><feColorMatrix type="matrix" values="0 0 0 0 0.99609375  0 0 0 0 0.99609375  0 0 0 0 0.99609375  0 0 0 1 0"></feColorMatrix></filter></defs><mask v-gra="im" id="7f1f3fea-67de-4e7e-b0bc-19398dfe5621"><g filter="url(#b65143b9-fee7-4fd4-9b8a-8a8f4c9e47ec)"><g class="imagesvg"><g><rect fill="url(#6e5070f8-615a-49ac-a54e-71e6f4d9c800)" fill-opacity="0" stroke-width="2" x="0" y="0" width="126.63770563604812" height="66.55089713750709" class="image-rect"></rect> <svg x="0" y="0" width="126.63770563604812" height="66.55089713750709" filtersec="colorsb4001011926" class="image-svg-svg primary" style="overflow: visible;"><svg data-name="0fb12958-8c27-4b95-a16f-2c2f08c8c6c1" xmlns="http://www.w3.org/2000/svg" viewBox="0.000171661376953125 0.0028352737426757812 493.6896667480469 259.4452819824219"><title>33</title><path d="M278.65 64.9c13.88 3.61 27.59 14.17 35.78 29.44a32.52 32.52 0 0 1 9.45-5.13c-10.26-22.2-30.94-37.82-45.88-38.7 2.81 3.02 2.87 9.08.65 14.39zM215 64.9c-13.88 3.61-27.59 14.17-35.78 29.44a32.58 32.58 0 0 0-9.43-5.13c10.26-22.2 30.94-37.82 45.83-38.7-2.74 3.02-2.81 9.08-.62 14.39zM346.59 115.2s-4.44-2.67 2.84-3.2 20-9 20-9c-7.46-6-8.7-16.49-8.7-16.49-2.15 5.5-16.27 17.57-15.9 11.5-1.38 1.68-1.59 3.78-1.33 6.75l-1.06-5.33c4.08-6.8-3.74-16.09-9.59-12 5 .27 5 4.35 5 4.35-6.66-4.18-8.53 3.37-8.53 3.37 3.32-1.08 5.46 1.32 7.11 3.29-6.15-2.86-8.48.53-8 2.84 2.28-1.17 4.27 1.75 5 4.18 1.15 3 7.55 8.79 7.55 8.79 1.3 1.38 3.29 1.57 5.61.95zM388.62 128.21s-12.76-.78-17.16.85c-9.86 3.64 3.68 31.72 3.68 31.72s-13.35.45-13.18.72-10.6-5.88-14-5.44-9.48 1.87-6.82 8.27c0 0-.8-4 3.38-1.16 0 0-4.8 2.49-2.31 6.22 0 0 2-3.82 5.6-1.51 0 0-5 1.51-2.22 4.53 0 0 3-3.55 5.33-1.07s2 2.94 5.33 2.58 2.75-.91 3.64-1.91c0 0 1.78 2 1.06 3.73 0 0 1.85.89 4.26-1.78 0 0 5.69-1.07 6.94.89s3 2.22 4.62 2.49a4.44 4.44 0 0 1-.58-2.52c.34-1.8 2.4 2.59 5.47.92s3.55-3.11 2.84-4.44 4.53 3.29 1.16 5.51c0 0 6.3-2.49 5.24-7.28a153.59 153.59 0 0 1-2.09-16.26c.09-.27-3.11-.8-3.47-4.09 0 0 5.77 5.6 11 4.35l-1.53-1.4s5.42 1.74 8.17-.13c0 0-2.53-11.21-8.13-17.78z" fill="url(#6e5070f8-615a-49ac-a54e-71e6f4d9c800)"></path><path d="M486.1 128.01c-6.11 19.21-34.79 25-43.48 7.7-16.81-33.47-32.73-24.27-27.88-60.45 2.73-1.84 7.15-7.54 8.72-11.27 0 0 2.37 3.41 2.28 6 0 .53 12.17-28.8-4.38-44.07a33.52 33.52 0 0 1 6.24 2.5c-2.27-3.75-8.2-12.85-18.4-16.94a17.63 17.63 0 0 1 7.4 1s-12.46-17.76-35.27-10.9c0 0-8.06 2.61-8.88 5.51 0 0-.61-1.34 1.65-4.58 0 0-6.86 4.58-5.64 9.58-7.45 5-12.14 7.83-19.53 10.53-.85 1.54-.11 2.88 2.35 9.19l2.46 1.82s-.62-2.25 1.32-2.57 12.43 1.62 7.43 6.26c-3 2.77-8.45-1-8.3-2.15a14.84 14.84 0 0 0 0 7.18c.94 4.18 6.81 4.66 6.81 4.66a32 32 0 0 0 8.51-1.51c.77.68 1.27 1.27 1.82 4.31a2.51 2.51 0 0 1-1.82 2.43c-5 .85-5.71 2.67-5.43 4.88a6.16 6.16 0 0 1 3.7-1.11c2.85.37 1.09 4.06-1.79 4.63-2.61.5-6.13.27-9.68-3.46 0 0 1 5.16 5.87 6.26-7.59-.77-15.81-5.86-30.91-15.86 0 0-5.42-9.15-7.11-8.71a21.19 21.19 0 0 1-4.62.36c-5-3.29-9.15-1-9.15-1l1.78 1c-7.82-1.51-6 5.21-6 5.21 4.66-3.06 7.29.11 7.29.11-11.1-2.21-8.71 7.29-8.71 7.29.4-3.65 5.64-1.84 7.73-.53-8.26-2.58-6.93 6-6.93 6 .72-3.22 4-1.42 8.88 1.06 6.4 3.1 9.15 1.16 9.15 1.16S335.81 68.9 341 74.07c7.65 7.7 21.68 4.44 21.68 4.44.44 4.13 3 5.38 5.42 6.4 0 0-1.2-2.49-.93-2.49.88.81 2.13.25 10 .08 8.18 1.79 17.14 2.15 21.54-.7 0 0-2.71 3.24-9.37 3.33-9 .12-10.62-2.18-15-1.11s-5.47-.05-5.47-.05a6.31 6.31 0 0 0 2.4 2.58c-6.48.18-9-3.68-9-3.68s2 12.57 7.17 18.25S371 114.01 382 121.01s18.83 14.57 22.39 28.87 11.82 27.27 16.61 30.2c3.88 2.37 10.14 9.1 12.4 11.61l.35-3.44.51 4.39s-.47 15.15-.11 17.55-.62 2.4-.62 2.4c-2.4-1.25-3.11-.53-3.11-.53l-3.2 1.87c-9.68.18-6.13 7.46-6.13 7.46a3.71 3.71 0 0 1 2.25-4.74h.14c-2.61 1.39-1.23 5.33-1.23 5.33.27-3.29 2.4-.09 5.59 0s2-5.24 2-5.24c3.82 2-.62 5 .18 4.89s9.77-.62 13.68-2.31.62-6.31.62-6.31a2.69 2.69 0 0 1 2.49 1.6c.53-2.49-2.67-6.66-2.67-6.66l3.46 2.13-1.6-3.55c-4.26-8.44 6.84-15.9-1.06-21.32s-7-18.74-7-18.74c-1.69 4.71-1.33 10.84-1.33 10.84-1.69-3.73-2.93-3.2.53-15.55 2.62-9.34-2.48-22.48-5.12-28.33a44.15 44.15 0 0 0 12.32 14.47l-4.27-1.6c14.86 10.5 34.58 5.84 42.73-1.77 18-16 12.14-43.39-6.29-55.54 0 0-16.38-9-8.87-13.76s15-4.1 17.06-10.92a15.14 15.14 0 0 1-6.48 2s7.51-2.73 5.12-10.92-5.8-6.48-6.82-11.26c0 0-6.14 4.78-3.41 11.26 0 0 .68 5.46-2 6.14 0 0 1-3.07-2-6.14 0 0 1.36 5.46-2.39 7.51s-11.6 16-1 23.7 27.28 19.58 20.38 41.41zm-110.78-111c-1.63.79-5.24 3.18-9.36 1.85a5.57 5.57 0 0 1 5.3-2.21c1.74.29 2.27.53 3.53.29a5.54 5.54 0 0 0 1.7-.58 9.3 9.3 0 0 1-1.17.65zm18.49 4.23l1.19-4.72s-.5-4.49-2.67-5.69-6.3-.25-6.3-.25c3.68-3.93 16.97.62 7.78 10.62zM147.08 115.2s4.44-2.67-2.84-3.2-20-9-20-9c7.46-6 8.7-16.49 8.7-16.49 1.87 4.8 9.51 10.9 12.79 12.67s3.11-1.17 3.11-1.17c1.38 1.68 1.59 3.78 1.33 6.75l1.06-5.33a9 9 0 0 1 1.45-10.42c4-4.44 8.17-1.51 8.17-1.51-5 .27-5 4.35-5 4.35 6.66-4.18 8.53 3.37 8.53 3.37-3.33-1.08-5.46 1.32-7.11 3.29 6.15-2.86 8.48.53 8 2.84-2.28-1.17-4.28 1.75-5 4.18-1.15 3-7.55 8.79-7.55 8.79-1.33 1.31-3.31 1.5-5.64.88zM105 128.21s12.75-.78 17.15.85c9.86 3.64-3.68 31.72-3.68 31.72s13.35.45 13.17.72 10.61-5.88 14-5.44 9.48 1.87 6.82 8.27c0 0 .8-4-3.38-1.16 0 0 4.8 2.49 2.31 6.22 0 0-2-3.82-5.6-1.51 0 0 5 1.51 2.22 4.53 0 0-3-3.55-5.33-1.07s-2 2.94-5.33 2.58-2.75-.89-3.64-1.87c0 0-1.77 2-1.06 3.73 0 0-1.85.89-4.26-1.78 0 0-5.7-1.07-6.94.89s-3 2.22-4.62 2.49a3.93 3.93 0 0 0 .53-2.75c-.35-1.24-2.49 2.75-5.42 1.15s-3.55-3.11-2.84-4.44-4.53 3.29-1.16 5.51c0 0-6.31-2.49-5.24-7.28a154.34 154.34 0 0 0 2.13-16.26c-.09-.27 3.11-.8 3.47-4.09 0 0-5.77 5.6-11 4.35l1.46-1.4s-5.42 1.74-8.17-.13c0 0 2.53-11.21 8.13-17.78z" fill="url(#6e5070f8-615a-49ac-a54e-71e6f4d9c800)"></path><path d="M7.57 128.01c6.12 19.21 34.79 25 43.48 7.7 16.89-33.7 32.76-24.1 27.88-60.44-2.73-1.84-7.12-7.54-8.72-11.3 0 0-2.37 3.41-2.28 6 0 .53-12.17-28.8 4.38-44.07a33.52 33.52 0 0 0-6.24 2.5c2.27-3.75 8.2-12.85 18.4-16.94a17.62 17.62 0 0 0-7.4 1S89.53-5.28 112.35 1.58c0 0 8.06 2.61 8.88 5.51 0 0 .61-1.34-1.65-4.58 0 0 6.86 4.58 5.65 9.58 7.45 5 12.14 7.83 19.53 10.53.85 1.54.11 2.88-2.36 9.19l-2.46 1.82s.62-2.25-1.31-2.57-12.44 1.62-7.43 6.26c3 2.77 8.45-1 8.3-2.15a14.84 14.84 0 0 1 0 7.18c-.94 4.18-6.86 4.66-6.86 4.66a32 32 0 0 1-8.51-1.51c-.77.68-1.27 1.27-1.82 4.31a2.51 2.51 0 0 0 1.82 2.43c5 .85 5.71 2.67 5.43 4.88a5.41 5.41 0 0 0-4.35-.89c-1.77.8-.18 3.91 2.49 4.44s6.13.27 9.68-3.46c0 0-1 5.16-5.86 6.26 8.1-.82 17.27-6.83 30.91-15.86 0 0 5.42-9.15 7.11-8.71a21.17 21.17 0 0 0 4.62.36c5-3.29 9.15-1 9.15-1l-1.77 1c7.82-1.51 6 5.21 6 5.21-4.66-3.06-7.29.11-7.29.11 11.1-2.21 8.71 7.29 8.71 7.29-.4-3.65-5.64-1.84-7.73-.53 8.26-2.58 6.93 6 6.93 6-.72-3.22-4-1.42-8.88 1.06-6.4 3.1-9.15 1.16-9.15 1.16s-12.32 9.34-17.45 14.51C145 81.77 131 78.51 131 78.51c-.44 4.13-3 5.38-5.42 6.4 0 0 1.2-2.49.93-2.49-.88.81-2.13.25-10 .08-8.17 1.79-17.14 2.15-21.54-.7 0 0 2.71 3.24 9.37 3.33 9.05.12 10.62-2.18 15-1.11s5.51-.09 5.51-.09a6.3 6.3 0 0 1-2.4 2.58c6.49.18 9-3.68 9-3.68s-2 12.57-7.17 18.25-1.63 12.93-12.64 19.93-18.83 14.57-22.39 28.87-11.81 27.23-16.61 30.13c-3.88 2.37-10.14 9.1-12.4 11.61l-.35-3.44-.51 4.39s.47 15.15.11 17.55.62 2.4.62 2.4c2.4-1.25 3.11-.53 3.11-.53l3.2 1.87c9.68.18 6.13 7.46 6.13 7.46a3.72 3.72 0 0 0-2.27-4.75h-.12c2.61 1.39 1.23 5.33 1.23 5.33-.27-3.29-2.4-.09-5.6 0s-2-5.24-2-5.24c-3.82 2 .62 5-.18 4.89s-9.77-.62-13.68-2.31-.62-6.31-.62-6.31a2.69 2.69 0 0 0-2.49 1.6c-.53-2.49 2.67-6.66 2.67-6.66l-3.41 2.14 1.6-3.55c4.26-8.44-6.84-15.9 1.07-21.32s7-18.74 7-18.74c1.69 4.71 1.33 10.84 1.33 10.84 1.69-3.73 2.93-3.2-.53-15.55-2.62-9.34 2.48-22.48 5.12-28.33a44.15 44.15 0 0 1-12.32 14.47l4.27-1.6c-14.86 10.46-34.62 5.78-42.73-1.81-18-16-12.14-43.39 6.29-55.54 0 0 16.38-9 8.87-13.76S11.05 71.01 9 64.2a15.14 15.14 0 0 0 6.48 2S8 63.47 10.35 55.28s5.8-6.48 6.83-11.26c0 0 6.14 4.78 3.41 11.26 0 0-.68 5.46 2 6.14 0 0-1-3.07 2-6.14 0 0-1.36 5.46 2.39 7.51s11.6 16 1 23.7S.62 106.18 7.57 128.01zm110.78-111c1.63.79 5.24 3.18 9.36 1.85a5.57 5.57 0 0 0-5.3-2.21c-1.74.29-2.27.53-3.52.29a5.5 5.5 0 0 1-1.7-.58 9.18 9.18 0 0 0 1.16.65zM99.81 21.2l-1.17-4.68s.49-4.49 2.67-5.69 6.3-.25 6.3-.25c-3.61-3.92-16.96.61-7.8 10.62zM246.81 35.14a10 10 0 0 1 4.53-4.13l-4.53-5.57-4.48 5.57a9.94 9.94 0 0 1 4.48 4.13z" fill="url(#6e5070f8-615a-49ac-a54e-71e6f4d9c800)"></path><path d="M246.81 64.42c6.1 1.14 12.39 1.3 18 3.35 0 0 14.24-35.36 29.43-47l-15 .81a7.71 7.71 0 1 1-14 4.41v-.78L257 28.1a10.85 10.85 0 1 1-10.08 14 10.85 10.85 0 1 1-10.08-14l-8.28-2.89a7.71 7.71 0 1 1-14-3.63l-15-.81c15.19 11.63 29.43 47 29.43 47 5.46-2.05 11.74-2.21 17.82-3.35z" fill="url(#6e5070f8-615a-49ac-a54e-71e6f4d9c800)"></path><path d="M377.3 186.43l-.07.22.06-.22a73.11 73.11 0 0 0-23-2.52c-2.57-6.25-9.58-11.27-19.89-14.21l-.2.68.18-.68a54.74 54.74 0 0 0-7.56-1.35 61.38 61.38 0 0 0 1.76-25.56C306 138.91 296.66 111.7 312 96.43c-8.19-15.3-22.58-26.15-34.88-28.72-6.44 10.36-20 9.49-30.35 1.26-10.67 8.54-24.09 8.78-30.36-1.24-12.3 2.57-26.69 13.41-34.88 28.72a25.1 25.1 0 0 1 7.55 18.21A28.75 28.75 0 0 1 165 142.81a61.45 61.45 0 0 0 1.78 25.54 54.67 54.67 0 0 0-7.56 1.35l.18.68-.2-.68c-10.31 2.94-17.31 8-19.89 14.21a73.12 73.12 0 0 0-23 2.52l.06.22-.07-.22c-23 6.91-40.81 28.61-17.22 49.84 8.22 7.4 19.85 10 32.08 10.07 1.83 5.06 7 9.19 14.91 11.55 15.53 4.65 41.8-1.12 78.25-17.15 8.75 4.49 16.62 9.63 22.42 15.22 5.81-5.58 13.68-10.72 22.43-15.22 36.45 16 62.72 21.8 78.25 17.15 7.87-2.36 13.08-6.49 14.91-11.55 12.23-.09 23.86-2.67 32.08-10.07 23.7-21.26 5.85-42.93-17.11-49.84zm-28 14.78c-1.72 2.24-7.21 7.54-21.13 8.17a86.55 86.55 0 0 1-23.33-2.6q2.46-2.78 4.62-5.5c16.44-6.09 31.6-10.94 44.4-13.15.36 4.12-1.15 8.58-4.59 13.08zm-15.38-30.12h.08c9.57 2.72 16.13 7.25 18.7 12.84-11 .5-22.84 2.73-35.52 6.26a86 86 0 0 0 9.09-19.89 28.88 28.88 0 0 1 7.57.79zm-118.5-75.51q4.78.42 9 .73t6.3.31q1.66 0 4.58-.1t7.18-.31l2.91-.21q7.59-.52 11-.52a52.94 52.94 0 0 1 7.34.42q2.86.42 2.86 1.77a37.24 37.24 0 0 0 .52 5.62 36.14 36.14 0 0 1 .31 4.06q0 .94-.62.94c-.42 0-.87-.48-1.35-1.46a14.33 14.33 0 0 0-.73-1.46q-1.56-2.29-5.72-3.85t-12-1.51q-2.08 0-6.66.42-4.06.31-6.14.42a25 25 0 0 0-.73 5.52l-.1 1.87q-.21 4.27-.31 9.37t-.1 17.28q2.7 0 7.18.1 4.89.21 6.76.21a15.42 15.42 0 0 0 2.08-.1h2a19.9 19.9 0 0 0 6.61-1.4 11.91 11.91 0 0 0 5.11-4.69h.73q-.11 1.46-.31 2.91-.21 1.67-.31 3t-.1 3v3.85q0 1 .21 4.06h-.73a8.41 8.41 0 0 0-4.73-4.16 26.44 26.44 0 0 0-7.44-1.56q-5.31-.41-17.07-.42v.32q0 7.39.21 13.37t.62 14.83a6.63 6.63 0 0 0 1.93 4.63 12.19 12.19 0 0 0 4.53 2.81 25.46 25.46 0 0 0 5.76 1.36 51 51 0 0 0 6.14.36 43.1 43.1 0 0 0 8.22-.68 14.79 14.79 0 0 0 6.35-3 49.18 49.18 0 0 0 6.14-6.56q2.29-2.7 2.81-2.71a.83.83 0 0 1 .94.94 5.07 5.07 0 0 1-.57 2.13q-.57 1.2-1.82 3.38a29.77 29.77 0 0 0-3 6.45v.21a6 6 0 0 1-1.66 2.91q-1.15 1-4.58 1h-15.83q-6.56 0-11.55-.1h-9.37q-2.08 0-4.84.21l-6.61.52-.94.1v-1.67a10.33 10.33 0 0 0 2.6-2 18.1 18.1 0 0 0 2.5-3.17 21.8 21.8 0 0 0 1.87-3.7 9.57 9.57 0 0 0 .73-3.43q.21-8 .21-13.22v-14.75q0-8-.21-16.34t-.62-16.13a12.76 12.76 0 0 0-2.08-6.14 14.9 14.9 0 0 0-5.93-5l-.21-1.14zm-48 74.74a86 86 0 0 0 9.1 19.89c-12.68-3.52-24.49-5.76-35.52-6.26 3.75-8.26 16.61-13.8 26.38-13.63zm-27.61 17.81c12.79 2.21 28 7.06 44.4 13.15q2.16 2.72 4.62 5.5a86.55 86.55 0 0 1-23.33 2.6c-13.92-.64-19.41-5.93-21.13-8.17-3.37-4.5-4.92-8.96-4.56-13.08zm-9 56.73c-11.73-.15-22.82-2.65-30.63-9.68-22.75-20.48-5.11-40.79 16.63-47.34 6.79-1.64 14.69-1.05 21.56 0-.48 4.52 1.14 9.36 4.84 14.21 2.23 2.92 13.26 14 46.78 6a171.78 171.78 0 0 0 19.82 18.47l-3.48 1.37c-16.35-4.7-34.11-7-46-7-20.33.77-31.82 13.74-29.52 23.97zm80.31-17.31q2 1.59 4.14 3.19c-2.2-.78-4.43-1.51-6.67-2.19zm-50.47-5.18c9.43 0 24 3 39 8-28.52 10.26-53.3 14.42-67.3 14.49-2.84-11.32 12.36-22.44 28.3-22.49zm-14.05 34.11c-7.24-2.17-12-5.73-13.77-10.15 14.8-.14 40.34-4.75 69-15.21a183.14 183.14 0 0 1 20.86 8.73c-25.4 11-57.62 22.17-76.1 16.63zm100.21-18.33c-31.28-17.83-52.61-37.41-63.43-58.22-8.85-17-9.25-28.54-7.84-36.34l3.79-2.34c-1.41 7.24-2 20.63 6.68 37.27 10.38 20 30.82 38.84 60.81 56.16 30-17.32 50.42-36.2 60.8-56.16 8.66-16.65 8.1-30 6.69-37.27l3.79 2.34c1.41 7.8 1 19.33-7.84 36.34-10.81 20.81-32.15 40.39-63.45 58.22zm35.72-10.6l2.53 1c-2.24.68-4.47 1.4-6.67 2.19q2.15-1.59 4.16-3.18zm64.53 28.92c-18.48 5.54-50.7-5.59-76.06-16.62a183 183 0 0 1 20.85-8.73c28.64 10.46 54.18 15.07 69 15.21-1.79 4.42-6.53 8-13.77 10.15zm14.25-11.61c-14-.06-38.78-4.23-67.3-14.49 11.29-3.81 27.44-8 39.31-8 18.55.7 30.49 12.6 28 22.5zm32.16-9.68c-7.81 7-18.89 9.53-30.63 9.68 2.3-10.23-9.21-23.2-29.46-24-11.93 0-29.69 2.29-46 7l-3.57-1.34a171.77 171.77 0 0 0 19.84-18.51c33.52 8 44.54-3 46.78-6 3.7-4.84 5.31-9.69 4.84-14.21 6.87-1.09 14.77-1.68 21.56 0 21.77 6.55 39.42 26.87 16.66 47.35z" fill="url(#6e5070f8-615a-49ac-a54e-71e6f4d9c800)"></path></svg></svg> <!----></g></g></g></mask></svg>